<svg data-name="Group 2231" xmlns="http://www.w3.org/2000/svg" viewBox="0 0 852.84 229.539"><g data-name="Group 2229" fill="#fff"><path data-name="Path 3454" d="M81.941 226.423L22.79 159.27v67.153H0v-95.779h24.008l58.74 66.884v-66.884h22.79v95.779z"/><path data-name="Path 3455" d="M239.244 189.794a45.794 45.794 0 01-19.533 29.987c-6.642 4.333-18.852 9.758-37.847 9.758-28.484 0-43.556-11.53-50.467-21.7-3.258-4.618-8.557-14.661-8.557-29.307 0-22.11 10.723-33.64 17.777-39.08 10.454-8 24.419-11.261 37.309-11.8 11.941-.411 26.318 1.487 37.041 6.785a60.285 60.285 0 017.591 4.618 42.39 42.39 0 017.607 7.181c4.065 4.76 10.17 15.341 10.17 31.346a61.145 61.145 0 01-1.091 12.212zm-31.869-34.462c-6.658-7.323-16.97-10.723-26.871-10.439a41.3 41.3 0 00-13.839 3.116c-17.776 7.86-19.121 24.831-19.121 31.2a37.018 37.018 0 002.578 13.839 26.07 26.07 0 003.654 6.516 35.454 35.454 0 004.887 5.425c3.8 3.258 11.118 7.323 22.932 7.323a41.683 41.683 0 0013.839-2.309c18.852-6.785 20.481-25.369 20.481-31.331 0-4.072-.537-14.515-8.54-23.34z"/><path data-name="Path 3456" d="M305.081 148.136v78.287h-24.15v-78.287h-35.538v-17.492h95.1v17.492z"/><path data-name="Path 3457" d="M434.975 226.423v-41.105h-57.79v41.105h-24.008v-95.779h24.008v36.9h57.79v-36.9h24.008v95.779z"/><path data-name="Path 3458" d="M480.635 226.423v-95.779h24.008v95.779z"/><path data-name="Path 3459" d="M607.651 226.423L548.5 159.27v67.153h-22.79v-95.779h24.008l58.739 66.884v-66.884h22.791v95.779z"/><path data-name="Path 3460" d="M744.472 226.423v-10.992a35.438 35.438 0 01-3.385 2.989c-4.08 3.258-12.62 8.414-25.653 10.17a68.992 68.992 0 01-10.58.68c-20.355 0-31.616-5.425-38.8-10.723-5.567-4.065-14.25-11.53-17.635-27.946a63.6 63.6 0 01-1.36-12.479 49.977 49.977 0 0112.89-33.64 52.811 52.811 0 019.094-7.465c12.067-7.591 25.226-9.632 39.207-9.632 6.5 0 31.869.143 48.159 18.046a53.909 53.909 0 016.374 9.221l-26.46 3.669a51.365 51.365 0 00-5.283-5.71c-6.373-5.424-15.2-7.449-23.739-7.449-11.672 0-24.024 4.207-30.54 14.519a35.732 35.732 0 00-5.013 18.71 36.594 36.594 0 002.435 13.3c7.465 19.137 28.358 20.086 33.925 20.086 10.454 0 22.932-3.527 30.113-11.672a22.693 22.693 0 004.476-7.734H711.37v-17.238h51.417v51.29z"/><path data-name="Path 3461" d="M24.008 17.223v24.42h60.906v17.1H24.008V95.78H.127V0h88.6v17.223z"/><path data-name="Path 3462" d="M107.23 95.78V0h24.008v95.78z"/><path data-name="Path 3463" d="M236.233 95.78L207.48 59.957 178.711 95.78h-30.524l42.92-50.2L153.754 0h29.971l23.755 31.062L231.63 0h29.433l-37.211 45.581 42.778 50.2z"/><path data-name="Path 3464" d="M733.749 95.78L705 59.957 676.227 95.78H645.7l42.921-50.2L651.27 0h29.971L705 31.062 729.147 0h29.433l-37.212 45.581 42.779 50.2z"/><path data-name="Rectangle 30481" d="M283.061 38.384h346.162v16.26H283.061z"/></g><g data-name="Group 2230" fill="#fff"><path data-name="Path 3465" d="M837.536 195.349a9.622 9.622 0 00-9.756-9.481h-15.66v29.174h5.869v-10.21h6.985l5.777 10.21h6.6l-6.134-10.842a9.478 9.478 0 006.319-8.851zM827.78 199h-9.791v-7.3h9.791a3.647 3.647 0 110 7.292z"/><path data-name="Path 3466" d="M823.778 177.206a23.249 23.249 0 11-23.249 23.249 23.276 23.276 0 0123.249-23.249m0-5.812a29.062 29.062 0 1029.062 29.061 29.062 29.062 0 00-29.062-29.061z"/></g></svg>